ffmpeg started on 2016-12-12 at 05:37:25
Report written to "Output/theora/results/ffmpeg/crowd_run_2160p505000k.log"
Command line:
Tools/ffmpeg/ffmpeg -benchmark -y -i Input/y4m/crowd_run_2160p50.y4m -c:v libtheora -b:v 5000k -an Output/theora/encoded/crowd_run_2160p505000k.mkv
ffmpeg version N-82227-gdb23fde Copyright (c) 2000-2016 the FFmpeg developers
  built with gcc 5.4.0 (Ubuntu 5.4.0-6ubuntu1~16.04.2) 20160609
  configuration: --prefix=/home/jaroslav/ffmpeg_build --pkg-config-flags=--static --extra-cflags=-I/home/jaroslav/ffmpeg_build/include --extra-ldflags=-L/home/jaroslav/ffmpeg_build/lib --bindir=/home/jaroslav/bin --enable-gpl --enable-libass --enable-libfdk-aac --enable-libfreetype --enable-libmp3lame --enable-libopus --enable-libtheora --enable-libvorbis --enable-libvpx --enable-libx264 --enable-libx265 --enable-nvenc --enable-libmfx --enable-libxvid --enable-libgsm --enable-libopencore-amrnb --enable-version3 --enable-nonfree
  libavutil      55. 35.100 / 55. 35.100
  libavcodec     57. 66.101 / 57. 66.101
  libavformat    57. 57.100 / 57. 57.100
  libavdevice    57.  2.100 / 57.  2.100
  libavfilter     6. 66.100 /  6. 66.100
  libswscale      4.  3.100 /  4.  3.100
  libswresample   2.  4.100 /  2.  4.100
  libpostproc    54.  2.100 / 54.  2.100
Input #0, yuv4mpegpipe, from 'Input/y4m/crowd_run_2160p50.y4m':
  Duration: 00:00:10.00, start: 0.000000, bitrate: 4976642 kb/s
    Stream #0:0: Video: rawvideo (I420 / 0x30323449), yuv420p(progressive), 3840x2160, SAR 1:1 DAR 16:9, 50 fps, 50 tbr, 50 tbn, 50 tbc
Output #0, matroska, to 'Output/theora/encoded/crowd_run_2160p505000k.mkv':
  Metadata:
    encoder         : Lavf57.57.100
    Stream #0:0: Video: theora (libtheora) (theo / 0x6F656874), yuv420p, 3840x2160 [SAR 1:1 DAR 16:9], q=2-31, 5000 kb/s, 50 fps, 1k tbn, 50 tbc
    Metadata:
      encoder         : Lavc57.66.101 libtheora
Stream mapping:
  Stream #0:0 -> #0:0 (rawvideo (native) -> theora (libtheora))
Press [q] to stop, [?] for help
frame=    3 fps=0.0 q=-0.0 size=       4kB time=00:00:00.04 bitrate= 779.5kbits/s speed=0.052x    frame=    5 fps=3.4 q=-0.0 size=       4kB time=00:00:00.08 bitrate= 394.6kbits/s speed=0.055x    frame=    7 fps=1.6 q=-0.0 size=       4kB time=00:00:00.12 bitrate= 264.1kbits/s speed=0.027x    frame=    8 fps=1.0 q=-0.0 size=       4kB time=00:00:00.14 bitrate= 226.7kbits/s speed=0.0168x    frame=    9 fps=0.8 q=-0.0 size=       4kB time=00:00:00.16 bitrate= 198.5kbits/s speed=0.0146x    frame=   11 fps=0.9 q=-0.0 size=       4kB time=00:00:00.20 bitrate= 159.0kbits/s speed=0.0172x    frame=   13 fps=1.0 q=-0.0 size=     499kB time=00:00:00.24 bitrate=16975.2kbits/s speed=0.0194x    frame=   15 fps=1.2 q=-0.0 size=     499kB time=00:00:00.28 bitrate=14558.8kbits/s speed=0.0217x    frame=   17 fps=1.2 q=-0.0 size=     499kB time=00:00:00.32 bitrate=12744.6kbits/s speed=0.0236x    frame=   19 fps=1.3 q=-0.0 size=     499kB time=00:00:00.36 bitrate=11332.5kbits/s speed=0.0253x    frame=   21 fps=1.4 q=-0.0 size=     499kB time=00:00:00.40 bitrate=10202.1kbits/s speed=0.0267x    frame=   23 fps=1.5 q=-0.0 size=     499kB time=00:00:00.44 bitrate=9276.7kbits/s speed=0.028x    frame=   25 fps=1.5 q=-0.0 size=     856kB time=00:00:00.48 bitrate=14574.1kbits/s speed=0.0293x    frame=   27 fps=1.6 q=-0.0 size=     856kB time=00:00:00.52 bitrate=13455.2kbits/s speed=0.0308x    frame=   29 fps=1.6 q=-0.0 size=     856kB time=00:00:00.56 bitrate=12495.8kbits/s speed=0.0319x    frame=   31 fps=1.7 q=-0.0 size=     856kB time=00:00:00.60 bitrate=11664.1kbits/s speed=0.0328x    frame=   33 fps=1.7 q=-0.0 size=     856kB time=00:00:00.64 bitrate=10936.2kbits/s speed=0.0337x    frame=   35 fps=1.8 q=-0.0 size=     856kB time=00:00:00.68 bitrate=10293.9kbits/s speed=0.0346x    frame=   37 fps=1.8 q=-0.0 size=     984kB time=00:00:00.72 bitrate=11182.9kbits/s speed=0.0353x    frame=   39 fps=1.9 q=-0.0 size=     984kB time=00:00:00.76 bitrate=10595.1kbits/s speed=0.0364x    frame=   41 fps=1.9 q=-0.0 size=     984kB time=00:00:00.80 bitrate=10066.0kbits/s speed=0.0371x    frame=   43 fps=1.9 q=-0.0 size=     984kB time=00:00:00.84 bitrate=9587.2kbits/s speed=0.0377x    frame=   45 fps=2.0 q=-0.0 size=     984kB time=00:00:00.88 bitrate=9151.9kbits/s speed=0.0382x    frame=   46 fps=1.9 q=-0.0 size=     984kB time=00:00:00.90 bitrate=8948.8kbits/s speed=0.0379x    frame=   48 fps=2.0 q=-0.0 size=     984kB time=00:00:00.94 bitrate=8568.4kbits/s speed=0.0385x    frame=   50 fps=2.0 q=-0.0 size=    1110kB time=00:00:00.98 bitrate=9268.5kbits/s speed=0.0392x    frame=   52 fps=2.0 q=-0.0 size=    1110kB time=00:00:01.02 bitrate=8905.3kbits/s speed=0.0398x    frame=   54 fps=2.0 q=-0.0 size=    1110kB time=00:00:01.06 bitrate=8569.6kbits/s speed=0.0402x    frame=   56 fps=2.1 q=-0.0 size=    1110kB time=00:00:01.10 bitrate=8258.3kbits/s speed=0.0407x    frame=   58 fps=2.1 q=-0.0 size=    1110kB time=00:00:01.14 bitrate=7968.8kbits/s speed=0.0411x    frame=   60 fps=2.1 q=-0.0 size=    1110kB time=00:00:01.18 bitrate=7698.9kbits/s speed=0.0415x    frame=   62 fps=2.1 q=-0.0 size=    1317kB time=00:00:01.22 bitrate=8835.0kbits/s speed=0.0421x    frame=   64 fps=2.2 q=-0.0 size=    1317kB time=00:00:01.26 bitrate=8554.8kbits/s speed=0.0425x    frame=   66 fps=2.2 q=-0.0 size=    1317kB time=00:00:01.30 bitrate=8291.8kbits/s speed=0.0428x    frame=   68 fps=2.2 q=-0.0 size=    1317kB time=00:00:01.34 bitrate=8044.4kbits/s speed=0.0432x    frame=   70 fps=2.2 q=-0.0 size=    1317kB time=00:00:01.38 bitrate=7811.4kbits/s speed=0.0434x    frame=   72 fps=2.2 q=-0.0 size=    1317kB time=00:00:01.42 bitrate=7591.5kbits/s speed=0.0437x    frame=   74 fps=2.2 q=-0.0 size=    1441kB time=00:00:01.46 bitrate=8082.5kbits/s speed=0.0442x    frame=   76 fps=2.3 q=-0.0 size=    1441kB time=00:00:01.50 bitrate=7867.1kbits/s speed=0.0445x    frame=   78 fps=2.3 q=-0.0 size=    1441kB time=00:00:01.54 bitrate=7662.9kbits/s speed=0.0448x    frame=   80 fps=2.3 q=-0.0 size=    1441kB time=00:00:01.58 bitrate=7469.0kbits/s speed=0.0451x    frame=   82 fps=2.3 q=-0.0 size=    1441kB time=00:00:01.62 bitrate=7284.7kbits/s speed=0.0453x    frame=   84 fps=2.3 q=-0.0 size=    1441kB time=00:00:01.66 bitrate=7109.3kbits/s speed=0.0452x    frame=   86 fps=2.3 q=-0.0 size=    1566kB time=00:00:01.70 bitrate=7540.0kbits/s speed=0.0456x    frame=   88 fps=2.3 q=-0.0 size=    1566kB time=00:00:01.74 bitrate=7366.8kbits/s speed=0.0458x    frame=   90 fps=2.3 q=-0.0 size=    1566kB time=00:00:01.78 bitrate=7201.3kbits/s speed=0.0461x    frame=   92 fps=2.3 q=-0.0 size=    1566kB time=00:00:01.82 bitrate=7043.1kbits/s speed=0.0463x    frame=   94 fps=2.3 q=-0.0 size=    1566kB time=00:00:01.86 bitrate=6891.7kbits/s speed=0.0464x    frame=   96 fps=2.4 q=-0.0 size=    1566kB time=00:00:01.90 bitrate=6746.7kbits/s speed=0.0466x    frame=   98 fps=2.4 q=-0.0 size=    1689kB time=00:00:01.94 bitrate=7127.1kbits/s speed=0.047x    frame=  100 fps=2.4 q=-0.0 size=    1689kB time=00:00:01.98 bitrate=6983.2kbits/s speed=0.0471x    frame=  102 fps=2.4 q=-0.0 size=    1689kB time=00:00:02.02 bitrate=6845.0kbits/s speed=0.0473x    frame=  104 fps=2.4 q=-0.0 size=    1689kB time=00:00:02.06 bitrate=6712.1kbits/s speed=0.0475x    frame=  106 fps=2.4 q=-0.0 size=    1689kB time=00:00:02.10 bitrate=6584.3kbits/s speed=0.0476x    frame=  108 fps=2.4 q=-0.0 size=    1689kB time=00:00:02.14 bitrate=6461.3kbits/s speed=0.0478x    frame=  110 fps=2.4 q=-0.0 size=    1881kB time=00:00:02.18 bitrate=7064.4kbits/s speed=0.0481x    frame=  112 fps=2.4 q=-0.0 size=    1881kB time=00:00:02.22 bitrate=6937.2kbits/s speed=0.0483x    frame=  114 fps=2.4 q=-0.0 size=    1881kB time=00:00:02.26 bitrate=6814.5kbits/s speed=0.0484x    frame=  116 fps=2.4 q=-0.0 size=    1881kB time=00:00:02.30 bitrate=6696.0kbits/s speed=0.0486x    frame=  118 fps=2.5 q=-0.0 size=    1881kB time=00:00:02.34 bitrate=6581.6kbits/s speed=0.0487x    frame=  120 fps=2.5 q=-0.0 size=    1881kB time=00:00:02.38 bitrate=6471.0kbits/s speed=0.0488x    frame=  122 fps=2.5 q=-0.0 size=    2005kB time=00:00:02.42 bitrate=6783.8kbits/s speed=0.0491x    frame=  124 fps=2.5 q=-0.0 size=    2005kB time=00:00:02.46 bitrate=6673.5kbits/s speed=0.0493x    frame=  126 fps=2.5 q=-0.0 size=    2005kB time=00:00:02.50 bitrate=6566.8kbits/s speed=0.0494x    frame=  128 fps=2.5 q=-0.0 size=    2005kB time=00:00:02.54 bitrate=6463.4kbits/s speed=0.0495x    frame=  130 fps=2.5 q=-0.0 size=    2005kB time=00:00:02.58 bitrate=6363.3kbits/s speed=0.0496x    frame=  132 fps=2.5 q=-0.0 size=    2005kB time=00:00:02.62 bitrate=6266.1kbits/s speed=0.0497x    frame=  134 fps=2.5 q=-0.0 size=    2130kB time=00:00:02.66 bitrate=6556.1kbits/s speed=0.0499x    frame=  136 fps=2.5 q=-0.0 size=    2130kB time=00:00:02.70 bitrate=6459.0kbits/s speed=0.0501x    frame=  138 fps=2.5 q=-0.0 size=    2130kB time=00:00:02.74 bitrate=6364.7kbits/s speed=0.0502x    frame=  140 fps=2.5 q=-0.0 size=    2130kB time=00:00:02.78 bitrate=6273.2kbits/s speed=0.0503x    frame=  142 fps=2.5 q=-0.0 size=    2130kB time=00:00:02.82 bitrate=6184.2kbits/s speed=0.0504x    frame=  144 fps=2.5 q=-0.0 size=    2130kB time=00:00:02.86 bitrate=6097.8kbits/s speed=0.0505x    frame=  146 fps=2.5 q=-0.0 size=    2321kB time=00:00:02.90 bitrate=6555.3kbits/s speed=0.0505x    frame=  148 fps=2.5 q=-0.0 size=    2321kB time=00:00:02.94 bitrate=6466.2kbits/s speed=0.0506x    frame=  150 fps=2.6 q=-0.0 size=    2321kB time=00:00:02.98 bitrate=6379.4kbits/s speed=0.0507x    frame=  152 fps=2.6 q=-0.0 size=    2321kB time=00:00:03.02 bitrate=6294.9kbits/s speed=0.0508x    frame=  154 fps=2.6 q=-0.0 size=    2321kB time=00:00:03.06 bitrate=6212.7kbits/s speed=0.0508x    frame=  155 fps=2.5 q=-0.0 size=    2321kB time=00:00:03.08 bitrate=6172.3kbits/s speed=0.0507x    frame=  157 fps=2.6 q=-0.0 size=    2446kB time=00:00:03.12 bitrate=6419.9kbits/s speed=0.0507x    frame=  159 fps=2.6 q=-0.0 size=    2446kB time=00:00:03.16 bitrate=6338.7kbits/s speed=0.0509x    frame=  161 fps=2.6 q=-0.0 size=    2446kB time=00:00:03.20 bitrate=6259.5kbits/s speed=0.051x    frame=  163 fps=2.6 q=-0.0 size=    2446kB time=00:00:03.24 bitrate=6182.2kbits/s speed=0.0511x    frame=  165 fps=2.6 q=-0.0 size=    2446kB time=00:00:03.28 bitrate=6106.8kbits/s speed=0.0511x    frame=  167 fps=2.6 q=-0.0 size=    2446kB time=00:00:03.32 bitrate=6033.3kbits/s speed=0.0512x    frame=  169 fps=2.6 q=-0.0 size=    2572kB time=00:00:03.36 bitrate=6268.1kbits/s speed=0.0512x    frame=  171 fps=2.6 q=-0.0 size=    2572kB time=00:00:03.40 bitrate=6194.4kbits/s speed=0.0514x    frame=  173 fps=2.6 q=-0.0 size=    2572kB time=00:00:03.44 bitrate=6122.4kbits/s speed=0.0515x    frame=  175 fps=2.6 q=-0.0 size=    2572kB time=00:00:03.48 bitrate=6052.0kbits/s speed=0.0516x    frame=  177 fps=2.6 q=-0.0 size=    2572kB time=00:00:03.52 bitrate=5983.3kbits/s speed=0.0516x    frame=  179 fps=2.6 q=-0.0 size=    2572kB time=00:00:03.56 bitrate=5916.1kbits/s speed=0.0517x    frame=  181 fps=2.6 q=-0.0 size=    2769kB time=00:00:03.60 bitrate=6299.2kbits/s speed=0.0517x    frame=  183 fps=2.6 q=-0.0 size=    2769kB time=00:00:03.64 bitrate=6230.0kbits/s speed=0.0519x    frame=  185 fps=2.6 q=-0.0 size=    2769kB time=00:00:03.68 bitrate=6162.3kbits/s speed=0.052x    frame=  187 fps=2.6 q=-0.0 size=    2769kB time=00:00:03.72 bitrate=6096.0kbits/s speed=0.052x    frame=  189 fps=2.6 q=-0.0 size=    2769kB time=00:00:03.76 bitrate=6031.2kbits/s speed=0.0521x    frame=  191 fps=2.6 q=-0.0 size=    2769kB time=00:00:03.80 bitrate=5967.7kbits/s speed=0.0521x    frame=  193 fps=2.6 q=-0.0 size=    2894kB time=00:00:03.84 bitrate=6172.9kbits/s speed=0.0522x    frame=  195 fps=2.6 q=-0.0 size=    2894kB time=00:00:03.88 bitrate=6109.2kbits/s speed=0.0523x    frame=  197 fps=2.6 q=-0.0 size=    2894kB time=00:00:03.92 bitrate=6046.9kbits/s speed=0.0524x    frame=  199 fps=2.6 q=-0.0 size=    2894kB time=00:00:03.96 bitrate=5985.9kbits/s speed=0.0524x    frame=  201 fps=2.6 q=-0.0 size=    2894kB time=00:00:04.00 bitrate=5926.0kbits/s speed=0.0525x    frame=  203 fps=2.6 q=-0.0 size=    2894kB time=00:00:04.04 bitrate=5867.4kbits/s speed=0.0525x    frame=  205 fps=2.6 q=-0.0 size=    3021kB time=00:00:04.08 bitrate=6063.7kbits/s speed=0.0525x    frame=  207 fps=2.6 q=-0.0 size=    3021kB time=00:00:04.12 bitrate=6004.9kbits/s speed=0.0526x    frame=  209 fps=2.6 q=-0.0 size=    3021kB time=00:00:04.16 bitrate=5947.1kbits/s speed=0.0527x    frame=  211 fps=2.6 q=-0.0 size=    3021kB time=00:00:04.20 bitrate=5890.5kbits/s speed=0.0527x    frame=  213 fps=2.6 q=-0.0 size=    3021kB time=00:00:04.24 bitrate=5834.9kbits/s speed=0.0527x    frame=  215 fps=2.6 q=-0.0 size=    3021kB time=00:00:04.28 bitrate=5780.4kbits/s speed=0.0528x    frame=  217 fps=2.7 q=-0.0 size=    3225kB time=00:00:04.32 bitrate=6114.0kbits/s speed=0.0528x    frame=  219 fps=2.7 q=-0.0 size=    3225kB time=00:00:04.36 bitrate=6057.9kbits/s speed=0.0529x    frame=  221 fps=2.7 q=-0.0 size=    3225kB time=00:00:04.40 bitrate=6002.8kbits/s speed=0.053x    frame=  223 fps=2.7 q=-0.0 size=    3225kB time=00:00:04.44 bitrate=5948.8kbits/s speed=0.053x    frame=  225 fps=2.7 q=-0.0 size=    3225kB time=00:00:04.48 bitrate=5895.7kbits/s speed=0.0531x    frame=  227 fps=2.7 q=-0.0 size=    3225kB time=00:00:04.52 bitrate=5843.5kbits/s speed=0.0531x    frame=  229 fps=2.7 q=-0.0 size=    3352kB time=00:00:04.56 bitrate=6020.5kbits/s speed=0.0531x    frame=  231 fps=2.7 q=-0.0 size=    3352kB time=00:00:04.60 bitrate=5968.2kbits/s speed=0.0533x    frame=  233 fps=2.7 q=-0.0 size=    3352kB time=00:00:04.64 bitrate=5916.7kbits/s speed=0.0533x    frame=  235 fps=2.7 q=-0.0 size=    3352kB time=00:00:04.68 bitrate=5866.2kbits/s speed=0.0533x    frame=  237 fps=2.7 q=-0.0 size=    3352kB time=00:00:04.72 bitrate=5816.5kbits/s speed=0.0533x    frame=  239 fps=2.7 q=-0.0 size=    3352kB time=00:00:04.76 bitrate=5767.6kbits/s speed=0.0534x    frame=  241 fps=2.7 q=-0.0 size=    3480kB time=00:00:04.80 bitrate=5938.2kbits/s speed=0.0534x    frame=  243 fps=2.7 q=-0.0 size=    3480kB time=00:00:04.84 bitrate=5889.1kbits/s speed=0.0535x    frame=  245 fps=2.7 q=-0.0 size=    3480kB time=00:00:04.88 bitrate=5840.9kbits/s speed=0.0535x    frame=  247 fps=2.7 q=-0.0 size=    3480kB time=00:00:04.92 bitrate=5793.4kbits/s speed=0.0536x    frame=  249 fps=2.7 q=-0.0 size=    3480kB time=00:00:04.96 bitrate=5746.7kbits/s speed=0.0536x    frame=  251 fps=2.7 q=-0.0 size=    3480kB time=00:00:05.00 bitrate=5700.7kbits/s speed=0.0536x    frame=  253 fps=2.7 q=-0.0 size=    3608kB time=00:00:05.04 bitrate=5862.7kbits/s speed=0.0536x    frame=  255 fps=2.7 q=-0.0 size=    3608kB time=00:00:05.08 bitrate=5816.6kbits/s speed=0.0538x    frame=  257 fps=2.7 q=-0.0 size=    3608kB time=00:00:05.12 bitrate=5771.1kbits/s speed=0.0538x    frame=  259 fps=2.7 q=-0.0 size=    3608kB time=00:00:05.16 bitrate=5726.4kbits/s speed=0.0538x    frame=  261 fps=2.7 q=-0.0 size=    3608kB time=00:00:05.20 bitrate=5682.4kbits/s speed=0.0539x    frame=  263 fps=2.7 q=-0.0 size=    3608kB time=00:00:05.24 bitrate=5639.0kbits/s speed=0.0539x    frame=  265 fps=2.7 q=-0.0 size=    3812kB time=00:00:05.28 bitrate=5913.2kbits/s speed=0.0539x    frame=  267 fps=2.7 q=-0.0 size=    3812kB time=00:00:05.32 bitrate=5868.7kbits/s speed=0.054x    frame=  269 fps=2.7 q=-0.0 size=    3812kB time=00:00:05.36 bitrate=5825.0kbits/s speed=0.054x    frame=  271 fps=2.7 q=-0.0 size=    3812kB time=00:00:05.40 bitrate=5781.8kbits/s speed=0.0541x    frame=  273 fps=2.7 q=-0.0 size=    3812kB time=00:00:05.44 bitrate=5739.3kbits/s speed=0.0541x    frame=  275 fps=2.7 q=-0.0 size=    3812kB time=00:00:05.48 bitrate=5697.4kbits/s speed=0.0541x    frame=  277 fps=2.7 q=-0.0 size=    3939kB time=00:00:05.52 bitrate=5845.0kbits/s speed=0.0541x    frame=  279 fps=2.7 q=-0.0 size=    3939kB time=00:00:05.56 bitrate=5803.0kbits/s speed=0.0542x    frame=  281 fps=2.7 q=-0.0 size=    3939kB time=00:00:05.60 bitrate=5761.6kbits/s speed=0.0543x    frame=  283 fps=2.7 q=-0.0 size=    3939kB time=00:00:05.64 bitrate=5720.7kbits/s speed=0.0543x    frame=  285 fps=2.7 q=-0.0 size=    3939kB time=00:00:05.68 bitrate=5680.4kbits/s speed=0.0543x    frame=  287 fps=2.7 q=-0.0 size=    3939kB time=00:00:05.72 bitrate=5640.7kbits/s speed=0.0543x    frame=  289 fps=2.7 q=-0.0 size=    4067kB time=00:00:05.76 bitrate=5783.6kbits/s speed=0.0543x    frame=  291 fps=2.7 q=-0.0 size=    4067kB time=00:00:05.80 bitrate=5743.7kbits/s speed=0.0544x    frame=  293 fps=2.7 q=-0.0 size=    4067kB time=00:00:05.84 bitrate=5704.3kbits/s speed=0.0544x    frame=  295 fps=2.7 q=-0.0 size=    4067kB time=00:00:05.88 bitrate=5665.5kbits/s speed=0.0545x    frame=  297 fps=2.7 q=-0.0 size=    4067kB time=00:00:05.92 bitrate=5627.3kbits/s speed=0.0545x    frame=  299 fps=2.7 q=-0.0 size=    4067kB time=00:00:05.96 bitrate=5589.5kbits/s speed=0.0545x    frame=  301 fps=2.7 q=-0.0 size=    4195kB time=00:00:06.00 bitrate=5726.6kbits/s speed=0.0545x    frame=  303 fps=2.7 q=-0.0 size=    4195kB time=00:00:06.04 bitrate=5688.7kbits/s speed=0.0546x    frame=  305 fps=2.7 q=-0.0 size=    4195kB time=00:00:06.08 bitrate=5651.3kbits/s speed=0.0546x    frame=  307 fps=2.7 q=-0.0 size=    4195kB time=00:00:06.12 bitrate=5614.3kbits/s speed=0.0546x    frame=  309 fps=2.7 q=-0.0 size=    4195kB time=00:00:06.16 bitrate=5577.9kbits/s speed=0.0546x    frame=  311 fps=2.7 q=-0.0 size=    4195kB time=00:00:06.20 bitrate=5541.9kbits/s speed=0.0547x    frame=  313 fps=2.7 q=-0.0 size=    4401kB time=00:00:06.24 bitrate=5776.6kbits/s speed=0.0547x    frame=  315 fps=2.7 q=-0.0 size=    4401kB time=00:00:06.28 bitrate=5739.8kbits/s speed=0.0548x    frame=  317 fps=2.7 q=-0.0 size=    4401kB time=00:00:06.32 bitrate=5703.5kbits/s speed=0.0548x    frame=  319 fps=2.7 q=-0.0 size=    4401kB time=00:00:06.36 bitrate=5667.6kbits/s speed=0.0548x    frame=  321 fps=2.7 q=-0.0 size=    4401kB time=00:00:06.40 bitrate=5632.2kbits/s speed=0.0548x    frame=  323 fps=2.7 q=-0.0 size=    4401kB time=00:00:06.44 bitrate=5597.2kbits/s speed=0.0548x    frame=  325 fps=2.7 q=-0.0 size=    4524kB time=00:00:06.48 bitrate=5718.5kbits/s speed=0.0548x    frame=  327 fps=2.8 q=-0.0 size=    4524kB time=00:00:06.52 bitrate=5683.5kbits/s speed=0.0549x    frame=  329 fps=2.8 q=-0.0 size=    4524kB time=00:00:06.56 bitrate=5648.8kbits/s speed=0.0549x    frame=  331 fps=2.8 q=-0.0 size=    4524kB time=00:00:06.60 bitrate=5614.6kbits/s speed=0.0549x    frame=  333 fps=2.8 q=-0.0 size=    4524kB time=00:00:06.64 bitrate=5580.8kbits/s speed=0.0549x    frame=  335 fps=2.8 q=-0.0 size=    4524kB time=00:00:06.68 bitrate=5547.3kbits/s speed=0.0549x    frame=  337 fps=2.8 q=-0.0 size=    4650kB time=00:00:06.72 bitrate=5667.8kbits/s speed=0.0549x    frame=  339 fps=2.8 q=-0.0 size=    4650kB time=00:00:06.76 bitrate=5634.3kbits/s speed=0.055x    frame=  341 fps=2.8 q=-0.0 size=    4650kB time=00:00:06.80 bitrate=5601.1kbits/s speed=0.055x    frame=  343 fps=2.8 q=-0.0 size=    4650kB time=00:00:06.84 bitrate=5568.4kbits/s speed=0.055x    frame=  345 fps=2.8 q=-0.0 size=    4650kB time=00:00:06.88 bitrate=5536.0kbits/s speed=0.055x    frame=  347 fps=2.8 q=-0.0 size=    4650kB time=00:00:06.92 bitrate=5504.0kbits/s speed=0.055x    frame=  349 fps=2.8 q=-0.0 size=    4776kB time=00:00:06.96 bitrate=5621.1kbits/s speed=0.0551x    frame=  351 fps=2.8 q=-0.0 size=    4776kB time=00:00:07.00 bitrate=5589.0kbits/s speed=0.0551x    frame=  353 fps=2.8 q=-0.0 size=    4776kB time=00:00:07.04 bitrate=5557.2kbits/s speed=0.0552x    frame=  355 fps=2.8 q=-0.0 size=    4776kB time=00:00:07.08 bitrate=5525.8kbits/s speed=0.0552x    frame=  357 fps=2.8 q=-0.0 size=    4776kB time=00:00:07.12 bitrate=5494.8kbits/s speed=0.0552x    frame=  359 fps=2.8 q=-0.0 size=    4776kB time=00:00:07.16 bitrate=5464.1kbits/s speed=0.0552x    frame=  361 fps=2.8 q=-0.0 size=    4978kB time=00:00:07.20 bitrate=5663.2kbits/s speed=0.0552x    frame=  363 fps=2.8 q=-0.0 size=    4978kB time=00:00:07.24 bitrate=5631.9kbits/s speed=0.0553x    frame=  365 fps=2.8 q=-0.0 size=    4978kB time=00:00:07.28 bitrate=5601.0kbits/s speed=0.0553x    frame=  367 fps=2.8 q=-0.0 size=    4978kB time=00:00:07.32 bitrate=5570.4kbits/s speed=0.0553x    frame=  369 fps=2.8 q=-0.0 size=    4978kB time=00:00:07.36 bitrate=5540.1kbits/s speed=0.0553x    frame=  371 fps=2.8 q=-0.0 size=    4978kB time=00:00:07.40 bitrate=5510.2kbits/s speed=0.0553x    frame=  373 fps=2.8 q=-0.0 size=    5105kB time=00:00:07.44 bitrate=5620.2kbits/s speed=0.0553x    frame=  375 fps=2.8 q=-0.0 size=    5105kB time=00:00:07.48 bitrate=5590.2kbits/s speed=0.0554x    frame=  377 fps=2.8 q=-0.0 size=    5105kB time=00:00:07.52 bitrate=5560.5kbits/s speed=0.0554x    frame=  379 fps=2.8 q=-0.0 size=    5105kB time=00:00:07.56 bitrate=5531.0kbits/s speed=0.0554x    frame=  381 fps=2.8 q=-0.0 size=    5105kB time=00:00:07.60 bitrate=5501.9kbits/s speed=0.0554x    frame=  383 fps=2.8 q=-0.0 size=    5105kB time=00:00:07.64 bitrate=5473.1kbits/s speed=0.0554x    frame=  385 fps=2.8 q=-0.0 size=    5230kB time=00:00:07.68 bitrate=5578.4kbits/s speed=0.0554x    frame=  387 fps=2.8 q=-0.0 size=    5230kB time=00:00:07.72 bitrate=5549.5kbits/s speed=0.0555x    frame=  389 fps=2.8 q=-0.0 size=    5230kB time=00:00:07.76 bitrate=5520.9kbits/s speed=0.0555x    frame=  391 fps=2.8 q=-0.0 size=    5230kB time=00:00:07.80 bitrate=5492.5kbits/s speed=0.0555x    frame=  393 fps=2.8 q=-0.0 size=    5230kB time=00:00:07.84 bitrate=5464.5kbits/s speed=0.0555x    frame=  395 fps=2.8 q=-0.0 size=    5230kB time=00:00:07.88 bitrate=5436.8kbits/s speed=0.0555x    frame=  397 fps=2.8 q=-0.0 size=    5354kB time=00:00:07.92 bitrate=5537.7kbits/s speed=0.0555x    frame=  399 fps=2.8 q=-0.0 size=    5354kB time=00:00:07.96 bitrate=5509.9kbits/s speed=0.0556x    frame=  401 fps=2.8 q=-0.0 size=    5354kB time=00:00:08.00 bitrate=5482.3kbits/s speed=0.0556x    frame=  403 fps=2.8 q=-0.0 size=    5354kB time=00:00:08.04 bitrate=5455.0kbits/s speed=0.0556x    frame=  405 fps=2.8 q=-0.0 size=    5354kB time=00:00:08.08 bitrate=5428.0kbits/s speed=0.0556x    frame=  407 fps=2.8 q=-0.0 size=    5354kB time=00:00:08.12 bitrate=5401.3kbits/s speed=0.0556x    frame=  409 fps=2.8 q=-0.0 size=    5565kB time=00:00:08.16 bitrate=5585.8kbits/s speed=0.0556x    frame=  411 fps=2.8 q=-0.0 size=    5565kB time=00:00:08.20 bitrate=5558.6kbits/s speed=0.0556x    frame=  413 fps=2.8 q=-0.0 size=    5565kB time=00:00:08.24 bitrate=5531.6kbits/s speed=0.0556x    frame=  415 fps=2.8 q=-0.0 size=    5565kB time=00:00:08.28 bitrate=5504.9kbits/s speed=0.0556x    frame=  417 fps=2.8 q=-0.0 size=    5565kB time=00:00:08.32 bitrate=5478.4kbits/s speed=0.0556x    frame=  419 fps=2.8 q=-0.0 size=    5565kB time=00:00:08.36 bitrate=5452.2kbits/s speed=0.0556x    frame=  421 fps=2.8 q=-0.0 size=    5683kB time=00:00:08.40 bitrate=5541.4kbits/s speed=0.0556x    frame=  423 fps=2.8 q=-0.0 size=    5683kB time=00:00:08.44 bitrate=5515.1kbits/s speed=0.0557x    frame=  425 fps=2.8 q=-0.0 size=    5683kB time=00:00:08.48 bitrate=5489.1kbits/s speed=0.0557x    frame=  427 fps=2.8 q=-0.0 size=    5683kB time=00:00:08.52 bitrate=5463.3kbits/s speed=0.0557x    frame=  429 fps=2.8 q=-0.0 size=    5683kB time=00:00:08.56 bitrate=5437.8kbits/s speed=0.0557x    frame=  431 fps=2.8 q=-0.0 size=    5683kB time=00:00:08.60 bitrate=5412.5kbits/s speed=0.0557x    frame=  433 fps=2.8 q=-0.0 size=    5800kB time=00:00:08.64 bitrate=5498.8kbits/s speed=0.0557x    frame=  435 fps=2.8 q=-0.0 size=    5800kB time=00:00:08.68 bitrate=5473.5kbits/s speed=0.0557x    frame=  437 fps=2.8 q=-0.0 size=    5800kB time=00:00:08.72 bitrate=5448.4kbits/s speed=0.0557x    frame=  439 fps=2.8 q=-0.0 size=    5800kB time=00:00:08.76 bitrate=5423.5kbits/s speed=0.0557x    frame=  441 fps=2.8 q=-0.0 size=    5800kB time=00:00:08.80 bitrate=5398.8kbits/s speed=0.0557x    frame=  443 fps=2.8 q=-0.0 size=    5800kB time=00:00:08.84 bitrate=5374.4kbits/s speed=0.0557x    frame=  445 fps=2.8 q=-0.0 size=    6011kB time=00:00:08.88 bitrate=5544.4kbits/s speed=0.0556x    frame=  447 fps=2.8 q=-0.0 size=    6011kB time=00:00:08.92 bitrate=5519.5kbits/s speed=0.0557x    frame=  449 fps=2.8 q=-0.0 size=    6011kB time=00:00:08.96 bitrate=5494.9kbits/s speed=0.0557x    frame=  451 fps=2.8 q=-0.0 size=    6011kB time=00:00:09.00 bitrate=5470.4kbits/s speed=0.0557x    frame=  453 fps=2.8 q=-0.0 size=    6011kB time=00:00:09.04 bitrate=5446.2kbits/s speed=0.0557x    frame=  455 fps=2.8 q=-0.0 size=    6011kB time=00:00:09.08 bitrate=5422.3kbits/s speed=0.0557x    frame=  457 fps=2.8 q=-0.0 size=    6135kB time=00:00:09.12 bitrate=5509.8kbits/s speed=0.0557x    frame=  459 fps=2.8 q=-0.0 size=    6135kB time=00:00:09.16 bitrate=5485.8kbits/s speed=0.0557x    frame=  461 fps=2.8 q=-0.0 size=    6135kB time=00:00:09.20 bitrate=5461.9kbits/s speed=0.0557x    frame=  463 fps=2.8 q=-0.0 size=    6135kB time=00:00:09.24 bitrate=5438.3kbits/s speed=0.0557x    frame=  465 fps=2.8 q=-0.0 size=    6135kB time=00:00:09.28 bitrate=5414.8kbits/s speed=0.0557x    frame=  467 fps=2.8 q=-0.0 size=    6135kB time=00:00:09.32 bitrate=5391.6kbits/s speed=0.0557x    frame=  469 fps=2.8 q=-0.0 size=    6257kB time=00:00:09.36 bitrate=5475.2kbits/s speed=0.0557x    frame=  471 fps=2.8 q=-0.0 size=    6257kB time=00:00:09.40 bitrate=5451.9kbits/s speed=0.0558x    frame=  473 fps=2.8 q=-0.0 size=    6257kB time=00:00:09.44 bitrate=5428.8kbits/s speed=0.0558x    frame=  475 fps=2.8 q=-0.0 size=    6257kB time=00:00:09.48 bitrate=5405.9kbits/s speed=0.0558x    frame=  477 fps=2.8 q=-0.0 size=    6257kB time=00:00:09.52 bitrate=5383.2kbits/s speed=0.0558x    frame=  479 fps=2.8 q=-0.0 size=    6257kB time=00:00:09.56 bitrate=5360.7kbits/s speed=0.0558x    frame=  481 fps=2.8 q=-0.0 size=    6381kB time=00:00:09.60 bitrate=5444.5kbits/s speed=0.0558x    frame=  483 fps=2.8 q=-0.0 size=    6381kB time=00:00:09.64 bitrate=5421.9kbits/s speed=0.0558x    frame=  485 fps=2.8 q=-0.0 size=    6381kB time=00:00:09.68 bitrate=5399.5kbits/s speed=0.0558x    frame=  487 fps=2.8 q=-0.0 size=    6381kB time=00:00:09.72 bitrate=5377.3kbits/s speed=0.0558x    frame=  489 fps=2.8 q=-0.0 size=    6381kB time=00:00:09.76 bitrate=5355.3kbits/s speed=0.0558x    frame=  491 fps=2.8 q=-0.0 size=    6381kB time=00:00:09.80 bitrate=5333.4kbits/s speed=0.0558x    frame=  493 fps=2.8 q=-0.0 size=    6583kB time=00:00:09.84 bitrate=5479.6kbits/s speed=0.0558x    frame=  495 fps=2.8 q=-0.0 size=    6583kB time=00:00:09.88 bitrate=5457.4kbits/s speed=0.0559x    frame=  497 fps=2.8 q=-0.0 size=    6583kB time=00:00:09.92 bitrate=5435.4kbits/s speed=0.0559x    frame=  499 fps=2.8 q=-0.0 size=    6583kB time=00:00:09.96 bitrate=5413.6kbits/s speed=0.0559x    frame=  500 fps=2.8 q=-0.0 size=    6583kB time=00:00:09.98 bitrate=5402.7kbits/s speed=0.0558x    frame=  500 fps=2.8 q=-0.0 Lsize=    6708kB time=00:00:09.98 bitrate=5505.6kbits/s speed=0.0558x    
video:6699kB audio:0kB subtitle:0kB other streams:0kB global headers:3kB muxing overhead: 0.129124%
bench: utime=157.008s
bench: maxrss=211384kB
